<svg version="1" xmlns="http://www.w3.org/2000/svg" width="682.667" height="682.667" viewBox="0 0 512.000000 512.000000"><path d="M227.5 9.7c-48.1 6-85.2 20.5-122.5 48.1-12.3 9.1-36.1 32.1-45.2 43.7C30.7 138.6 13.5 180.4 8 227c-1.6 13.8-1.4 43.4.5 57.5 5.7 43.3 22.1 83.4 48 117.5l4.2 5.5-5.9 16.5c-7.6 21.6-15.1 45-14.5 45.6.2.3 4-.9 8.3-2.7 4.4-1.7 15.3-5.7 24.4-8.9 9.1-3.2 19.3-6.8 22.6-8.1l6.2-2.2 3.8 3c8.7 6.9 23.8 16 38.6 23.3 25.8 12.8 54.6 21.1 83.2 24.1 15 1.5 48.5.7 61.6-1.5 53.2-8.9 98.7-32.2 136-69.6 37.3-37.2 61.4-84.4 69.5-136 2.3-14.8 3.1-45 1.5-60.7-2.5-25.3-9.1-51.1-19.3-74.3-5-11.5-5-11.5-3.8-17 7-32.3 9-47 9.8-73 .7-21.7.2-24.8-5-30.6-1.6-2-4.9-4.5-7.1-5.7-3.9-2.1-5.3-2.2-24.6-2.1-12.4.1-25.6.8-33.4 1.8-12.7 1.6-35 5.7-41.4 7.5-2.9.9-4.6.3-15.5-4.9-22.1-10.7-52-19.2-76.9-21.9-9-1-44.4-1.3-51.3-.4zm50 20.4c14.2 1.5 30.9 5.2 46.5 10.5 17.6 6 17.4 5.9 12 8-8.2 3.2-24.4 11.9-33.5 18.1-17.9 12.1-30.3 24.6-73.3 73.9L210 162.7l-11.4.6c-21 1.1-38.9 5.9-59.1 15.7-18.8 9.1-33.8 20.6-47.7 36.5-7.1 8.1-9.3 11.7-21.6 35.9-15.9 31.3-16.7 33.5-15.7 40.2.6 4.5 1.5 5.7 11.8 16.2 11.8 11.9 14 13.6 19.7 14.5 7.2 1.1 10.2-.8 26.6-17.3l15.4-15.5 47 47 47 47-14.5 14.5c-7.9 8-14.9 15.8-15.5 17.3-1.5 4.1-1.2 13.3.4 16.5.8 1.5 6.8 8 13.3 14.4 18.7 18.5 17.2 18.6 55.1-.8 30.5-15.6 35.8-19.1 48.3-32.1 27.5-28.5 42.9-65.9 42.9-103.8v-11.3l5.8-5.4c3.1-3 11.8-11 19.2-17.8 53.9-49.5 64.9-62.1 79.1-90.3 3.2-6.5 6.1-11.3 6.4-10.5 19.7 52.8 19.5 109.4-.6 160.9-20.1 51.6-58.9 94.4-108.6 119.7-30.8 15.7-59.6 23-94.9 23.9-34.5 1-64-4.5-93.9-17.2-14.3-6.2-39.5-20.4-39.5-22.4 0-.3 4.5-2.6 10-5 12.2-5.3 24.3-12.7 29.2-17.8 18.7-19.4 18.1-48.9-1.4-69.9-18.7-19.9-49.8-20.5-70.2-1.2-6.3 6-13.4 17.4-19.2 30.8-4.5 10.6-4 10.8-12.9-3.5C43.9 346.1 32 312 28 279.7c-1.4-11.6-1.4-39.8 0-51.8 5-41.6 21.3-80.7 47.7-114.3 3.1-3.9 11.1-12.5 17.7-19.2 31.2-31 69.7-52.1 111.4-60.8 24.9-5.2 46.1-6.2 72.7-3.5zm183.3 16.5c2.1.6 2.2 1 2.2 14.3 0 40.4-9.6 84.3-25 115.1-7.9 15.7-16.3 27.5-28.9 40.3-18.4 18.8-60.9 57.8-112.5 103.1l-23.8 20.9-49.9-49.9C195.5 263 173 240.2 173 239.8c0-.4 11.5-14.6 25.7-31.5C264 129.8 294.5 96.7 314.1 82.8c28-20 59.3-30.9 103.4-36.1 5.3-.7 40.9-.7 43.3-.1zM190.9 184.7c0 .5-3.6 4.8-8 9.8-4.4 4.9-21.2 24.7-37.4 44-16.1 19.2-34.8 40.4-41.4 47l-12.1 12-6.5-6.5c-3.6-3.5-6.5-7-6.5-7.7 0-.7 3.4-8.2 7.6-16.6 4.2-8.3 9.2-18.7 11-23 10.9-25.9 45.7-50.5 81.9-57.7 10.6-2.1 11.5-2.2 11.4-1.3zm17.4 120.1l48.9 48.9-9.8 8.1-9.7 8.1-47.3-46.6c-41.4-40.7-47.2-46.8-46.1-48.2 1.4-2 15-19.1 15.1-19.1.1 0 22.1 22 48.9 48.8zm121.2 24.6c-5 31.3-22.2 61.2-45.5 79-3 2.3-16 9.3-28.8 15.6l-23.3 11.4-7.5-7.5-7.6-7.6 6.4-6.8c3.4-3.8 13.7-13.4 22.8-21.4 9.1-8 30-26.5 46.5-41.1 32.9-29.1 37.9-33.2 38.3-32 .2.4-.4 5.1-1.3 10.4zm-189 25.9c6 3 11.4 8.6 14.6 14.7 1.8 3.6 2.3 6.2 2.3 12.5.1 18.3-9 26.6-45.9 41.5-18.7 7.5-39.7 15.2-40.2 14.6-1.1-1 16.4-44.9 24.6-61.6 9.3-19.2 17.5-25.4 32.6-24.7 5.1.3 8.4 1.1 12 3z"/><path d="M333 104.6c-37.5 9.9-56.6 51.3-39.5 86 8.4 17.2 23.3 28.8 42.3 33 8.6 1.9 21.5 1.5 29.4-1 21-6.6 37-23.2 42.3-44.1 1.9-7.6 1.9-21.4 0-29-4.5-17.5-16.8-32.8-32.5-40.3-4.7-2.2-10.9-4.5-13.8-5.1-7.3-1.5-21.6-1.3-28.2.5zm32.2 22.1c9.2 4.3 15.1 10 19.6 19.1 3.5 7.3 3.7 8 3.7 17.6-.1 13.2-2.4 19.3-10.6 28-22.8 24.4-62.1 13.6-69.9-19.3-3.5-14.9 3.5-32.7 16.5-41.6 8.5-5.9 14.4-7.6 25-7.2 7.6.2 10 .8 15.7 3.4z"/></svg>